<svg xmlns="http://www.w3.org/2000/svg" width="24" height="25" viewBox="0 0 24 25">
  <g fill="#777" fill-rule="evenodd" transform="translate(2 3)">
    <path fill-rule="nonzero" d="M18.5470832,15.4925756 L7.88108916,5.54875434 C8.03518207,5.29043804 8.16128925,5.02029294 8.25053901,4.74161084 C8.26005797,4.65229801 8.27909589,4.55962102 8.3135926,4.46520769 C8.3320213,4.41206855 8.34751817,4.35780802 8.36297696,4.30412626 C8.60689077,3.05049093 8.21958336,1.70808537 7.19926514,0.738739056 C6.87680087,0.432384092 6.51450927,0.186511535 6.12899142,0 C6.1099535,0 6.09091558,0.00227894234 6.07248688,0.00622187433 L5.72980434,0.0859125089 C5.66553232,0.101756584 5.61020813,0.140173041 5.57689177,0.194433573 C5.54357542,0.248115326 5.53466567,0.313119443 5.55248516,0.373601849 L6.28902416,2.88655178 C6.31640069,2.98038632 6.2795052,3.07986397 6.19680449,3.13694605 L4.5232572,4.29168251 C4.47208327,4.32615604 4.40902968,4.34142133 4.34654724,4.3334993 L2.56829139,4.10061309 C2.47131224,4.08816935 2.39219065,4.02262262 2.36599447,3.93330979 L1.58848587,1.27913778 C1.55277073,1.15875175 1.42308443,1.08582559 1.29518769,1.11577741 L0.845397821,1.22035554 C0.822209636,1.22599863 0.801382153,1.237321 0.78055467,1.24918597 C0.264170161,1.93702864 0.00357912873,2.74475092 0,3.55355841 C0.00772939502,4.56870062 0.417044649,5.58156388 1.23209603,6.35589784 C2.21551876,7.28964925 3.56188038,7.65590784 4.84039085,7.48462543 C5.02483021,7.45919533 5.19320156,7.44165109 5.34786561,7.43148628 C5.49540948,7.39303365 5.64059265,7.34275222 5.78455739,7.28791291 C7.57294141,9.00844203 16.3607305,17.5697411 16.3607305,17.5697411 C16.9645752,18.1434196 17.9432765,18.1434196 18.5471212,17.5697411 C19.1509659,16.9960626 19.1509659,16.0662903 18.5470832,15.4925756 Z M18.0003522,17.0503231 C17.6987154,17.3374699 17.2096694,17.3374699 16.9074614,17.0503231 C16.6052154,16.7637552 16.6052154,16.2985977 16.9074614,16.011451 C17.2097074,15.724883 17.6987154,15.724883 18.0003522,16.011451 C18.3025982,16.2985977 18.3025982,16.7637552 18.0003522,17.0503231 Z"/>
    <polygon points="15.503 4.846 17.285 4.411 19 1.521 18.169 .76 17.339 0 14.437 1.804 14.08 3.542 11 6.674 12.401 8"/>
    <path d="M6.49143536,10.2794294 C6.13680307,10.5747466 5.63426059,10.2088379 4.97637328,10.8765017 L0.628087613,15.2849504 C-0.241334743,16.1661583 -0.203418083,17.5591639 0.712451203,18.3956826 C1.62832049,19.2322013 3.0755317,19.1957196 3.94491492,18.3145118 L8.29382667,13.904896 C8.95171398,13.2377969 8.54633049,12.7748296 8.83369886,12.4183707 C8.89239338,12.3448426 8.94619669,12.2942426 9,12.2559915 C8.1770637,11.4453751 7.3895789,10.6700357 6.70786162,10 C6.67914043,10.0929549 6.61371561,10.1782671 6.49143536,10.2794294 Z"/>
  </g>
</svg>
