<svg xmlns="http://www.w3.org/2000/svg" width="48" height="48" viewBox="0 0 48 48">
  <path fill="#777" d="M2,0 L15,0 C16.1045695,-2.02906125e-16 17,0.8954305 17,2 L17,21 C17,22.1045695 16.1045695,23 15,23 L2,23 C0.8954305,23 1.3527075e-16,22.1045695 0,21 L0,2 C-1.3527075e-16,0.8954305 0.8954305,2.02906125e-16 2,0 Z M2,2 L2,18 L15,18 L15,2 L2,2 Z M8.5,22 C9.32842712,22 10,21.3284271 10,20.5 C10,19.6715729 9.32842712,19 8.5,19 C7.67157288,19 7,19.6715729 7,20.5 C7,21.3284271 7.67157288,22 8.5,22 Z" transform="translate(16 13)"/>
</svg>
